<svg width="120" height="120" viewBox="0 0 120 120" fill="none" xmlns="http://www.w3.org/2000/svg">
<rect width="120" height="120" rx="12" fill="#F5EAEA"/>
<path d="M53.221 49.1441C54.5788 49.0189 56.2606 49.0025 58.4133 49.0003L59.2572 47L53.221 49.1441Z" fill="#F24D0D"/>
<path fill-rule="evenodd" clip-rule="evenodd" d="M59.3349 47L59.2572 47C56.3362 47 54.042 47 52.2508 47.2408C50.4152 47.4876 48.9589 48.0036 47.8146 49.1479C46.6704 50.2921 46.1543 51.7485 45.9075 53.584C45.6667 55.3752 45.6667 57.6695 45.6667 60.5904V60.7429C45.6667 63.6638 45.6667 65.958 45.9075 67.7493C46.1543 69.5848 46.6704 71.0412 47.8146 72.1855C48.9589 73.3297 50.4152 73.8458 52.2508 74.0925C54.042 74.3334 56.3362 74.3333 59.2572 74.3333H59.4096C62.3306 74.3333 64.6248 74.3334 66.416 74.0925C68.2516 73.8458 69.708 73.3297 70.8523 72.1855C71.9526 71.0851 72.4724 69.6956 72.73 67.9567C72.9833 66.2469 72.9987 64.0762 73 61.3338C73.0002 60.7815 72.5527 60.3336 72.0004 60.3333C71.4481 60.3331 71.0002 60.7806 71 61.3329C70.9987 64.1197 70.9789 66.1293 70.7516 67.6635C70.5286 69.1686 70.1222 70.087 69.4381 70.7713C68.7273 71.482 67.7633 71.8934 66.1495 72.1104C64.507 72.3312 62.3472 72.3333 59.3334 72.3333C56.3196 72.3333 54.1598 72.3312 52.5173 72.1104C50.9035 71.8934 49.9396 71.482 49.2289 70.7713C48.5181 70.0605 48.1067 69.0965 47.8897 67.4828C47.6689 65.8402 47.6667 63.6805 47.6667 60.6667C47.6667 57.6528 47.6689 55.4931 47.8897 53.8505C48.1067 52.2368 48.5181 51.2728 49.2288 50.5621C49.9396 49.8514 50.9035 49.4399 52.5173 49.2229C52.7419 49.1927 52.9762 49.1666 53.221 49.1441L59.2572 47L58.4133 49.0003C58.7109 49 59.0175 49 59.3334 49C60.0416 49 60.7046 49 61.3285 49.0031C61.8808 49.0058 62.3307 48.5603 62.3334 48.008C62.3361 47.4557 61.8906 47.0058 61.3383 47.0031C60.7091 47 60.0414 47 59.3349 47Z" fill="#F24D0D"/>
<path fill-rule="evenodd" clip-rule="evenodd" d="M58.2909 66.576C55.7282 64.6341 52.5005 63.5999 49.1835 63.67L49.1598 63.6703C48.3729 63.6682 47.5873 63.724 46.8105 63.8368L46.523 61.8576C47.393 61.7312 48.2723 61.6686 49.1531 61.6702C52.9038 61.5935 56.5701 62.7626 59.4988 64.9819C62.2191 67.0431 64.1426 69.8897 64.9682 73.083L63.0319 73.5836C62.3234 70.8433 60.6664 68.3758 58.2909 66.576Z" fill="#F24D0D"/>
<path fill-rule="evenodd" clip-rule="evenodd" d="M67.1831 64.3335C64.4552 64.3233 61.7994 65.3289 59.3852 67.2114L60.615 68.7886C62.7373 67.1338 64.9687 66.3247 67.1777 66.3334L67.1827 66.3335C68.643 66.3319 70.1098 66.6918 71.5483 67.4204L72.4519 65.6361C70.7567 64.7776 68.9823 64.332 67.1831 64.3335Z" fill="#F24D0D"/>
<path fill-rule="evenodd" clip-rule="evenodd" d="M68.1192 49.8124C67.8629 50.1387 67.5932 50.4815 67.3839 50.697C66.9989 51.093 66.3658 51.102 65.9698 50.7171C65.5737 50.3322 65.5647 49.6991 65.9496 49.303C66.0679 49.1813 66.2621 48.9389 66.5463 48.577C66.5669 48.5508 66.5878 48.5242 66.609 48.4972C66.8624 48.1743 67.1598 47.7955 67.4661 47.434C67.7944 47.0466 68.1618 46.6442 68.5291 46.3314C68.7132 46.1746 68.9207 46.02 69.1439 45.9005C69.3591 45.7854 69.6557 45.6667 70.0001 45.6667C70.3445 45.6667 70.6411 45.7854 70.8563 45.9005C71.0795 46.02 71.287 46.1746 71.471 46.3314C71.8383 46.6442 72.2058 47.0466 72.534 47.434C72.8404 47.7955 73.1377 48.1743 73.3912 48.4972C73.4124 48.5242 73.4333 48.5508 73.4538 48.577C73.7381 48.9389 73.9322 49.1813 74.0505 49.303C74.4354 49.6991 74.4264 50.3322 74.0304 50.7171C73.6343 51.102 73.0012 51.093 72.6163 50.697C72.4069 50.4815 72.1373 50.1387 71.881 49.8124C71.8613 49.7873 71.8414 49.762 71.8215 49.7366C71.5642 49.4089 71.2891 49.0585 71.0082 48.727C71.0055 48.7238 71.0028 48.7206 71.0001 48.7174V57.3333C71.0001 57.8856 70.5524 58.3333 70.0001 58.3333C69.4478 58.3333 69.0001 57.8856 69.0001 57.3333V48.7174C68.9974 48.7206 68.9947 48.7238 68.992 48.727C68.711 49.0585 68.4359 49.4089 68.1787 49.7366C68.1587 49.762 68.1389 49.7873 68.1192 49.8124Z" fill="#F24D0D"/>
</svg>
